<svg viewBox="-21 1 511 511.999" xmlns="http://www.w3.org/2000/svg"><path d="m469.089844 182.355469v-30.929688c0-.214843-.011719-.429687-.03125-.640625-.003906-.03125 0-.066406-.003906-.101562-.027344-.289063-.074219-.570313-.132813-.84375-.011719-.046875-.023437-.09375-.035156-.136719-.054688-.230469-.121094-.460937-.195313-.683594-.007812-.027343-.015625-.054687-.023437-.082031l-25.433594-72.414062c-.507813-1.445313-1.203125-2.777344-2.042969-4 .003906-.097657.015625-.191407.015625-.292969v-45.640625c0-14.660156-11.929687-26.589844-26.589843-26.589844h-359.640626c-14.664062 0-26.589843 11.929688-26.589843 26.589844v45.640625c0 .097656.011719.195312.015625.292969-.84375 1.21875-1.539063 2.554687-2.046875 4l-25.433594 72.414062c-.007813.027344-.011719.054688-.023437.082031-.074219.222657-.136719.449219-.191407.675781-.011719.046876-.027343.097657-.039062.144532-.058594.273437-.101563.554687-.132813.839844-.003906.039062 0 .082031-.003906.121093-.019531.207031-.03125.414063-.03125.621094v30.933594c0 20.117187 11.300781 37.640625 27.886719 46.570312v208.085938h-8.246094c-10.828125 0-19.640625 8.808593-19.640625 19.640625v35.703125c0 10.832031 8.8125 19.644531 19.640625 19.644531h429.308594c10.832031 0 19.640625-8.8125 19.640625-19.644531v-35.703125c0-10.832032-8.808594-19.640625-19.640625-19.640625h-8.242188v-208.082031c16.582031-8.929688 27.882813-26.457032 27.882813-46.574219zm-52.855469 37.859375c-20.878906 0-37.859375-16.984375-37.859375-37.859375v-23.429688h75.71875v23.429688c-.003906 20.875-16.984375 37.859375-37.859375 37.859375zm-310.015625-61.289063h26.625c4.144531 0 7.5-3.359375 7.5-7.5 0-4.144531-3.355469-7.5-7.5-7.5h-24.855469l13.632813-63.8125h65.304687l-4.480469 63.8125h-21.601562c-4.140625 0-7.5 3.355469-7.5 7.5 0 4.140625 3.359375 7.5 7.5 7.5h21.09375v23.429688.003906c-.003906 20.875-16.988281 37.855469-37.859375 37.855469-20.875 0-37.859375-16.984375-37.859375-37.859375 0-.003907 0-.007813 0-.011719zm241.960938-78.8125 13.449218 63.8125h-74.480468l-4.484376-63.8125zm-80.550782 0 4.480469 63.8125h-74.628906l4.484375-63.8125zm-70.691406 78.8125h75.71875v23.429688c0 20.875-16.984375 37.859375-37.859375 37.859375s-37.859375-16.984375-37.859375-37.859375c0-.003907 0-.007813 0-.011719zm90.71875 0h75.714844v23.429688c0 20.875-16.980469 37.859375-37.855469 37.859375-20.878906 0-37.859375-16.984375-37.859375-37.859375zm163.351562-15h-74.050781l-13.445312-63.8125h63.621093c.875 0 1.660157.554688 1.949219 1.378907zm-396.03125-128.925781h359.640626c6.390624 0 11.589843 5.199219 11.589843 11.589844v38.519531h-71.953125c-.015625 0-.03125 0-.046875 0h-310.820312v-38.519531c0-6.390625 5.199219-11.589844 11.589843-11.589844zm-14.46875 66.492188c.289063-.828126 1.074219-1.378907 1.949219-1.378907h63.824219l-13.628906 63.8125h-74.070313zm-25.007812 100.863281v-23.429688h75.71875v23.429688.003906c-.003906 20.875-16.984375 37.855469-37.859375 37.855469s-37.859375-16.984375-37.859375-37.859375zm410.707031 254.65625h-57.871093c-4.144532 0-7.5 3.359375-7.5 7.5s3.355468 7.5 7.5 7.5h65.359374.011719.007813 15.734375c2.558593 0 4.640625 2.082031 4.640625 4.640625v35.707031c0 2.558594-2.082032 4.640625-4.640625 4.640625h-429.308594c-2.558594 0-4.640625-2.082031-4.640625-4.640625v-35.707031c0-2.558594 2.082031-4.640625 4.640625-4.640625h15.734375.011719.007812 304.621094c4.140625 0 7.5-3.359375 7.5-7.5s-3.359375-7.5-7.5-7.5h-156.21875v-170.554688c0-9.902343-8.054687-17.957031-17.957031-17.957031h-90c-9.898438 0-17.957032 8.054688-17.957032 17.957031v170.554688h-15v-202.753907c3.234376.621094 6.566407.957032 9.976563.957032 19.238281 0 36.113281-10.335938 45.359375-25.742188 9.246094 15.40625 26.117188 25.742188 45.359375 25.742188 19.238281 0 36.109375-10.335938 45.355469-25.742188 9.25 15.40625 26.121094 25.742188 45.359375 25.742188 19.242187 0 36.113281-10.335938 45.359375-25.742188 9.25 15.40625 26.121094 25.742188 45.359375 25.742188s36.113281-10.335938 45.359375-25.742188c9.246094 15.40625 26.121094 25.742188 45.359375 25.742188 3.410156 0 6.742187-.335938 9.972656-.957032v202.753907zm-256.910156 0h-95.910156v-170.554688c0-1.628906 1.324219-2.957031 2.957031-2.957031h90c1.628906 0 2.957031 1.324219 2.957031 2.957031v170.554688zm0 0"/><path d="m393.25 248.5h-178.25c-9.898438 0-17.957031 8.054688-17.957031 17.957031v112.40625c0 9.902344 8.054687 17.957031 17.957031 17.957031h178.25c9.902344 0 17.957031-8.054687 17.957031-17.957031v-112.40625c0-9.902343-8.058593-17.957031-17.957031-17.957031zm2.957031 130.363281c0 1.632813-1.328125 2.957031-2.957031 2.957031h-178.25c-1.628906 0-2.957031-1.324218-2.957031-2.957031v-112.40625c0-1.628906 1.328125-2.957031 2.957031-2.957031h178.25c1.628906 0 2.957031 1.324219 2.957031 2.957031zm0 0"/></svg>